# xmcd
#
# Track frame offsets:
#	150
#	21355
#	34332
#	51820
#	67132
#	83647
#	96582
#	112900
#	126877
#	142827
#	155330
#	167210
#	184017
#	196757
#	216020
#	229737
#
# Disc length: 3288 seconds
#
# Revision: 1
# Processed by: cddbd v1.4PL0 Copyright (c) Steve Scherf et al.
# Submitted via: audiograbber 1.81.02
#
DISCID=db0cd610
DTITLE=Various Artist - Heart Of The Country Vol. 4
DYEAR=1990
DGENRE=Country
TTITLE0=Dan Seals - They Rage On
TTITLE1=K.D. Lang and The Recliners - Full Moon Full Of Love
TTITLE2=Southern Pacific - Honey I Dare You
TTITLE3=Tanya Tucker - Call On Me
TTITLE4=Alan Jackson - Here In The Real World
TTITLE5=Anita Perras - Touch My Heart
TTITLE6=Vince Gill - Never Alone
TTITLE7=Patty Loveless - The Lonely Side Of Love
TTITLE8=Roy Orbison - You Got It
TTITLE9=Holly Dunn - There Goes My Heart Again
TTITLE10=Highway 101 - Walkin', Talkin' Cryin', Barely Beatin' Broken Heart
TTITLE11=Ian Tyson - Adelita Rose
TTITLE12=Terry Carisse - Start OF Something New
TTITLE13=Lionel Cartwright - In My Eyes
TTITLE14=Skip Ewing - It's You Again
TTITLE15=Steve Wariner - When I Could Come Home To YOu
EXTD=
EXTT0=
EXTT1=
EXTT2=
EXTT3=
EXTT4=
EXTT5=
EXTT6=
EXTT7=
EXTT8=
EXTT9=
EXTT10=
EXTT11=
EXTT12=
EXTT13=
EXTT14=
EXTT15=
PLAYORDER=
